<svg fill="none" viewBox="0 0 24 24" width="32" height="32" xmlns="http://www.w3.org/2000/svg">
<path fill="#181717" d="M12 .296c-6.627 0-12 5.372-12 12 0 5.3 3.438 9.8 8.207 11.387.6.113.793-.257.793-.573 0-.282-.011-1.025-.017-2.012-3.338.724-4.042-1.608-4.042-1.608-.546-1.387-1.334-1.756-1.334-1.756-1.09-.745.083-.729.083-.729 1.205.084 1.838 1.237 1.838 1.237 1.071 1.835 2.809 1.305 3.495.998.108-.775.419-1.306.762-1.608-2.665-.303-5.467-1.332-5.467-5.931 0-1.31.469-2.381 1.235-3.222-.123-.303-.535-1.527.117-3.183 0 0 1.008-.322 3.301 1.23a11.49 11.49 0 013.003-.404c1.018.005 2.045.138 3.003.404 2.291-1.552 3.298-1.23 3.298-1.23.653 1.656.241 2.88.119 3.183.77.841 1.233 1.912 1.233 3.222 0 4.609-2.807 5.625-5.479 5.921.43.37.823 1.102.823 2.222 0 1.606-.014 2.898-.014 3.292 0 .319.19.691.799.573C20.565 22.092 24 17.592 24 12.296c0-6.627-5.373-12-12-12"/>
</svg>
