<svg fill="none" viewBox="0 0 24 24" width="32" height="32" xmlns="http://www.w3.org/2000/svg">
<path fill="#0A66C2" d="M24 12.073c0-6.627-5.373-12-12-12S0 5.446 0 12.073c0 5.303 3.438 9.8 8.207 11.386.6.113.793-.258.793-.573 0-.282-.011-1.026-.017-2.013-3.338.725-4.042-1.607-4.042-1.607C4.66 18.07 3.77 17.7 3.77 17.7c-.908-.62.069-.608.069-.608 1.004.071 1.533 1.034 1.533 1.034.892 1.528 2.341 1.087 2.91.831.092-.646.35-1.087.636-1.338-2.665-.302-5.466-1.332-5.466-5.93 0-1.31.469-2.381 1.237-3.223-.124-.302-.535-1.524.118-3.18 0 0 1.01-.323 3.302 1.229.96-.267 1.98-.399 3-.405 1.02.006 2.041.138 3.003.405 2.29-1.552 3.3-1.229 3.3-1.229.655 1.656.243 2.878.119 3.18.768.842 1.236 1.913 1.236 3.223 0 4.607-2.801 5.625-5.471 5.927.359.309.678.919.678 1.854 0 1.34-.012 2.423-.012 2.752 0 .318.192.688.801.571C20.566 21.872 24 17.374 24 12.073Z"/>
</svg>
